<svg xmlns="http://www.w3.org/2000/svg" viewBox="0 0 24 24">
  <defs>
    <style>
      .cls-1 {
        fill: none;
      }

      .cls-2 {
        fill: #434447;
      }

      .cls-3 {
        fill: #8a8c8f;
      }

      .cls-4 {
        fill: #ebebeb;
      }

      .cls-5 {
        fill: #fff;
      }
    </style>
  </defs>
  <g id="Groupe_7717" data-name="Groupe 7717" transform="translate(-281 -370)">
    <rect id="Rectangle_11540" data-name="Rectangle 11540" class="cls-1" width="24" height="24" transform="translate(281 370)"/>
    <g id="Groupe_7702" data-name="Groupe 7702" transform="translate(284.475 372.405)">
      <path id="Tracé_12012" data-name="Tracé 12012" class="cls-2" d="M76.206,118.625,74.6,100.6H92.255l-1.606,18.015-7.236,2" transform="translate(-74.6 -100.6)"/>
      <path id="Tracé_12013" data-name="Tracé 12013" class="cls-3" d="M256,148.008V131h7.217l-1.377,15.378" transform="translate(-247.173 -129.52)"/>
      <path id="Tracé_12014" data-name="Tracé 12014" class="cls-4" d="M142,176.3h5.547v2.209h-3.124l.2,2.263h2.92v2.2H142.6m.1,1.11h2.219l.156,1.766,2.472.662v2.307l-4.535-1.265" transform="translate(-138.72 -172.617)"/>
      <path id="Tracé_12015" data-name="Tracé 12015" class="cls-5" d="M261.338,176.3H255.8v2.209h5.333m-.2,2.263H255.8v2.209h2.725l-.258,2.871-2.467.662v2.3l4.526-1.255" transform="translate(-246.983 -172.617)"/>
    </g>
  </g>
</svg>
