<svg xmlns="http://www.w3.org/2000/svg" viewBox="0 0 24 24">
  <defs>
    <style>
      .cls-1 {
        fill: none;
      }

      .cls-2 {
        fill: #434447;
      }

      .cls-3 {
        fill: #fff;
      }
    </style>
  </defs>
  <g id="Groupe_7722" data-name="Groupe 7722" transform="translate(-281 -535)">
    <rect id="Rectangle_11545" data-name="Rectangle 11545" class="cls-1" width="24" height="24" transform="translate(281 535)"/>
    <path id="Tracé_12225" data-name="Tracé 12225" class="cls-2" d="M4.544.1h8.912A3.545,3.545,0,0,1,17,3.644v8.912A3.545,3.545,0,0,1,13.456,16.1H4.544A3.545,3.545,0,0,1,1,12.556V3.644A3.545,3.545,0,0,1,4.544.1Z" transform="translate(284.013 538.9)"/>
    <path id="Tracé_12228" data-name="Tracé 12228" class="cls-3" d="M-4.295-1.5V0h-.879V-4.266H-3.51a1.925,1.925,0,0,1,.845.176,1.3,1.3,0,0,1,.561.5,1.393,1.393,0,0,1,.2.737,1.225,1.225,0,0,1-.429.989A1.788,1.788,0,0,1-3.524-1.5Zm0-.712h.785a.772.772,0,0,0,.532-.164.6.6,0,0,0,.183-.469.7.7,0,0,0-.185-.507.689.689,0,0,0-.51-.2h-.806ZM-.425-.706H1.441V0H-1.3V-4.266h.879ZM2.156.366h-.63L3.1-4.266h.63ZM5.121,0H4.242V-4.266h.879Z" transform="translate(293 549)"/>
  </g>
</svg>
