<?xml version="1.0" encoding="utf-8"?>
<!-- Generator: Adobe Illustrator 23.0.3, SVG Export Plug-In . SVG Version: 6.00 Build 0)  -->
<svg version="1.1" id="Calque_1" xmlns="http://www.w3.org/2000/svg" xmlns:xlink="http://www.w3.org/1999/xlink" x="0px" y="0px"
	 viewBox="0 0 2156.7 512" style="enable-background:new 0 0 2156.7 512;" xml:space="preserve">
<style type="text/css">
	.st0{fill:#F3702A;}
	.st1{fill:#1B171B;}
</style>
<title>SonarCloud</title>
<g id="SonarCloud_Black">
	<path class="st0" d="M2075.2,258.3c-12-14.6-28-25.4-46.1-31c0-0.4,0-0.8,0-1.1c0-53.2-43-96.3-96.2-96.4
		c-53.2,0-96.3,43-96.4,96.2v0.1c0,0.4,0,0.9,0,1.3c-50.7,16-78.9,70.1-62.9,120.8s70.1,78.9,120.8,62.9
		c14.6-4.6,27.8-12.6,38.7-23.3c37.7,37.5,98.6,37.3,136.1-0.4C2104.2,352.4,2106.7,296.5,2075.2,258.3z M2000.7,391.4
		c-39.8-0.1-72-32.3-72-72c0-6.7-5.4-12.1-12.1-12.1s-12.1,5.4-12.1,12.1c0,17.3,4.6,34.4,13.5,49.3c-27.2,29-72.8,30.4-101.8,3.1
		c-29-27.2-30.4-72.8-3.1-101.8c19.8-21,50.2-28.2,77.3-18.3l0.3,0.1c2.7,0.9,6.7,2.8,7.9,3.8c5.1,4.4,12.7,3.8,17.1-1.3
		c4.4-5.1,3.8-12.7-1.3-17.1l0,0c-5.3-4.5-13.7-7.6-15.7-8.3c-10.6-3.9-21.9-5.9-33.2-5.9c-1.6,0-3.1,0-4.6,0.1
		c1.7-39.7,35.3-70.5,75.1-68.8c39.7,1.7,70.5,35.3,68.8,75.1c-1,22.2-12.1,42.6-30.1,55.5c-5.5,3.9-6.7,11.5-2.8,16.9
		c3.9,5.5,11.5,6.7,16.9,2.8c18-12.9,31.1-31.6,37-52.9c37.3,13.8,56.4,55.2,42.7,92.5C2057.9,372.6,2030.9,391.4,2000.7,391.4
		L2000.7,391.4z"/>
	<path class="st1" d="M93.7,348.2c9.9,6.1,30.5,13.2,46.5,13.2c16.4,0,23.1-5.7,23.1-14.5s-5.3-13.2-25.6-19.9
		c-35.9-12.1-49.7-31.6-49.3-52.2c0-32.3,27.7-56.8,70.6-56.8c20.2,0,38.3,4.6,49,9.9l-9.6,37.3c-7.8-4.3-22.7-9.9-37.6-9.9
		c-13.1,0-20.6,5.3-20.6,14.2c0,8.2,6.8,12.4,28.1,19.9c33,11.4,46.9,28,47.2,53.6c0,32.3-25.6,56.1-75.3,56.1
		c-22.7,0-42.9-5-56.1-12.1L93.7,348.2z"/>
	<path class="st1" d="M405.4,306.7c0,63.5-45.1,92.7-91.6,92.7c-50.8,0-89.8-33.4-89.8-89.5s36.9-91.9,92.7-91.9
		C369.9,217.9,405.4,254.5,405.4,306.7z M279.7,308.5c0,29.8,12.4,52.2,35.5,52.2c21,0,34.4-21,34.4-52.2c0-25.9-9.9-52.2-34.4-52.2
		C289.3,256.2,279.7,282.9,279.7,308.5z"/>
	<path class="st1" d="M424.6,277.2c0-21.6-0.7-40.1-1.4-55.4h46.9l2.5,23.8h1.1c7.1-11,24.8-27.7,53.6-27.7
		c35.5,0,62.2,23.4,62.2,74.5v103h-54v-96.3c0-22.4-7.8-37.6-27.3-37.6c-14.9,0-23.8,10.3-27.3,20.2c-1.4,3.2-2.2,8.5-2.2,13.5
		v100.1h-53.9V277.2H424.6z"/>
	<path class="st1" d="M717.2,395.4L714,378h-1c-11.4,13.9-29.1,21.3-49.7,21.3c-35.2,0-56.1-25.6-56.1-53.3
		c0-45.1,40.5-66.8,101.9-66.4v-2.5c0-9.2-5-22.4-31.6-22.4c-17.7,0-36.5,6-47.9,13.1l-10-34.8c12.1-6.8,35.9-15.3,67.5-15.3
		c57.9,0,76.3,34.1,76.3,74.9V353c0,16.7,0.7,32.6,2.5,42.2L717.2,395.4z M710.8,313.4c-28.4-0.4-50.4,6.4-50.4,27.3
		c0,13.9,9.2,20.6,21.3,20.6c12.6,0.1,23.9-7.9,28-19.9c0.7-3,1.1-6.1,1.1-9.2L710.8,313.4z"/>
	<path class="st1" d="M791.8,279c0-25.6-0.7-42.2-1.4-57.1h46.5l1.8,31.9h1.4C849,228.6,870.3,218,887,218c3.8-0.1,7.6,0.1,11.4,0.7
		v50.8c-4.8-0.9-9.7-1.4-14.5-1.4c-19.9,0-33.4,10.7-37,27.4c-0.7,4-1,8-1,12.1v88h-54L791.8,279z"/>
	<path class="st1" d="M1039.3,389c-8.2,4.3-26.3,10-49.3,10c-51.9,0-85.6-35.2-85.6-87.7c0-52.9,36.2-91.2,92.3-91.2
		c18.5,0,34.8,4.6,43.3,8.9l-7.1,24.1c-7.4-4.3-19.2-8.2-36.2-8.2c-39.4,0-60.7,29.1-60.7,65c0,39.8,25.5,64.2,59.6,64.2
		c17.7,0,29.5-4.6,38.3-8.5L1039.3,389z"/>
	<path class="st1" d="M1061.7,143.4h31.2v252.1h-31.2V143.4z"/>
	<path class="st1" d="M1286.8,308.1c0,63.5-44,91.2-85.6,91.2c-46.5,0-82.3-34.1-82.3-88.4c0-57.5,37.6-91.2,85.2-91.2
		C1253.4,219.7,1286.8,255.6,1286.8,308.1z M1150.5,309.9c0,37.6,21.7,66.1,52.2,66.1c29.8,0,52.2-28.1,52.2-66.7
		c0-29.1-14.6-66.1-51.5-66.1S1150.5,277.2,1150.5,309.9L1150.5,309.9z"/>
	<path class="st1" d="M1455.8,348.6c0,17.7,0.4,33.4,1.4,46.9h-27.7l-1.8-28.1h-0.7c-8.2,13.8-26.3,32-56.8,32
		c-27,0-59.3-14.9-59.3-75.3V223.6h31.2v95.1c0,32.6,10,54.7,38.3,54.7c21,0,35.5-14.6,41.2-28.4c1.9-5.1,2.9-10.5,2.8-16V223.6
		h31.2v125H1455.8z"/>
	<path class="st1" d="M1641.9,143.4V351c0,15.3,0.4,32.7,1.4,44.4h-28.1l-1.4-29.8h-0.7c-9.6,19.2-30.5,33.7-58.6,33.7
		c-41.5,0-73.5-35.2-73.5-87.3c-0.3-57.2,35.2-92.3,77-92.3c26.3,0,44,12.4,51.8,26.3h0.7V143.4H1641.9z M1610.6,293.5
		c0-4.4-0.4-8.8-1.4-13.1c-4.6-19.9-21.7-36.2-45.1-36.2c-32.3,0-51.5,28.4-51.5,66.4c0,34.8,17.1,63.5,50.8,63.5
		c20.9,0,40.1-13.8,45.8-37.3c1-4.4,1.5-8.9,1.4-13.5L1610.6,293.5z"/>
</g>
</svg>
