<svg xmlns="http://www.w3.org/2000/svg" viewBox="0 0 24 24">
  <defs>
    <style>
      .cls-1 {
        fill: none;
      }

      .cls-2 {
        fill: #434447;
      }

      .cls-3 {
        fill: #fff;
      }
    </style>
  </defs>
  <g id="Groupe_7730" data-name="Groupe 7730" transform="translate(-281 -832)">
    <rect id="Rectangle_11554" data-name="Rectangle 11554" class="cls-1" width="24" height="24" transform="translate(281 832)"/>
    <g id="Groupe_7707" data-name="Groupe 7707" transform="translate(256.395 365)">
      <rect id="Rectangle_11422" data-name="Rectangle 11422" class="cls-2" width="18.394" height="18.395" transform="translate(27.606 470.001)"/>
    </g>
    <path id="Tracé_12232" data-name="Tracé 12232" class="cls-3" d="M6.73-6.365H4.383V0H2.5V-6.365H.193V-7.82H6.73Zm4.743,4.286a.775.775,0,0,0-.293-.645A3.638,3.638,0,0,0,10.151-3.2a9.868,9.868,0,0,1-1.2-.478,2.278,2.278,0,0,1-1.52-2.052,1.84,1.84,0,0,1,.379-1.147,2.449,2.449,0,0,1,1.072-.773,4.17,4.17,0,0,1,1.558-.277,3.647,3.647,0,0,1,1.512.3,2.394,2.394,0,0,1,1.039.857,2.237,2.237,0,0,1,.371,1.27h-1.88a.945.945,0,0,0-.293-.741,1.141,1.141,0,0,0-.792-.263,1.287,1.287,0,0,0-.8.223.684.684,0,0,0-.293.567.689.689,0,0,0,.322.545,4.064,4.064,0,0,0,1.133.5A6.942,6.942,0,0,1,12.09-4.1a2.238,2.238,0,0,1,1.268,2.014,1.91,1.91,0,0,1-.773,1.611,3.44,3.44,0,0,1-2.122.585A4.209,4.209,0,0,1,8.741-.234a2.6,2.6,0,0,1-1.16-.935,2.435,2.435,0,0,1-.389-1.367H9.083a1.2,1.2,0,0,0,.325.927,1.536,1.536,0,0,0,1.055.3,1.213,1.213,0,0,0,.739-.2A.665.665,0,0,0,11.473-2.079Z" transform="translate(287 851)"/>
  </g>
</svg>
