<svg xmlns="http://www.w3.org/2000/svg" width="101.568" height="101.569" viewBox="0 0 101.568 101.569"><g id="Gruppe_19699" data-name="Gruppe 19699" transform="translate(-339.164 -271)"><circle id="Ellipse_367" data-name="Ellipse 367" cx="50.784" cy="50.784" r="50.784" transform="translate(339.164 271)" fill="#00a19a"></circle><path id="Pfad_9548" data-name="Pfad 9548" d="M744.4,879.8v7.773h3V914.12h-3v4.726h64.9V914.12h-3V887.578h3V879.8l-32.45-12.242Zm9.336,34.446V892.879a3.714,3.714,0,0,1,3.628-3.795h.2a3.715,3.715,0,0,1,3.628,3.795V914.25Zm12.925,0V892.879a3.715,3.715,0,0,1,3.628-3.795h.2a3.714,3.714,0,0,1,3.629,3.795V914.25Zm12.925,0V892.879a3.714,3.714,0,0,1,3.628-3.795h.2a3.714,3.714,0,0,1,3.628,3.795V914.25Zm20.377,0H792.51V892.879a3.714,3.714,0,0,1,3.628-3.795h.2a3.714,3.714,0,0,1,3.628,3.795Z" transform="translate(-386.4 -576.19)" fill="#fff"></path></g></svg>