<svg xmlns="http://www.w3.org/2000/svg" width="101.568" height="101.569" viewBox="0 0 101.568 101.569"><g id="Gruppe_19700" data-name="Gruppe 19700" transform="translate(-839.244 -271)"><circle id="Ellipse_368" data-name="Ellipse 368" cx="50.784" cy="50.784" r="50.784" transform="translate(839.244 271)" fill="#00a19a"></circle><path id="Pfad_9549" data-name="Pfad 9549" d="M124.773,86.395a4.091,4.091,0,1,1,4.091,4.092A4.091,4.091,0,0,1,124.773,86.395Zm1.144,10.654.095.046a9.891,9.891,0,0,1,6.449-4.139,7.378,7.378,0,0,1-.275-1.749,13.174,13.174,0,0,0-1.332-.2,4.373,4.373,0,0,1-3.985,0,12.681,12.681,0,0,0-1.566.246,7.382,7.382,0,0,1-2.117,4.875A12.121,12.121,0,0,1,125.917,97.049Zm-22.46-4.093a7.359,7.359,0,0,0,.274-1.712,12.875,12.875,0,0,1,1.5-.237,4.373,4.373,0,0,0,3.985,0c.466.045.894.108,1.287.186a7.384,7.384,0,0,0,2.13,4.947,12.8,12.8,0,0,0-2.616.865l-.132.061A9.887,9.887,0,0,0,103.456,92.956Zm3.763-2.47a4.092,4.092,0,1,0-4.092-4.092A4.091,4.091,0,0,0,107.22,90.486Zm26.041,42.563v5.236a19.13,19.13,0,0,1-5.015,2.277v-6.279l-1.084,6.587a38.308,38.308,0,0,1-18.407-.01l-1.082-6.577v6.268A18.3,18.3,0,0,1,102.289,138v-4.954c0-5.241,1.793-10.083,11.674-11.078a8.781,8.781,0,0,0,8-.007C131.987,122.942,133.26,127.795,133.26,133.049Zm-15.3-28.559a8.217,8.217,0,1,0,8.216,8.217A8.218,8.218,0,0,0,117.959,104.49Zm-24.4-1.8a8.217,8.217,0,1,1,8.218,8.217A8.218,8.218,0,0,1,93.556,102.685Zm17.188,17.544a10.4,10.4,0,0,1-3.213-7.522q0-.271.014-.539-.834-.135-1.764-.226a8.782,8.782,0,0,1-8,.007c-9.881,1-11.675,5.838-11.675,11.078v4.954a18.294,18.294,0,0,0,5.383,2.548v-6.268l1.082,6.577a35.538,35.538,0,0,0,7.546,1.089C100.473,125.52,103.964,121.667,110.744,120.229Zm1.408-29.292a5.752,5.752,0,1,1,5.752,5.752A5.752,5.752,0,0,1,112.152,90.937Zm13.038,7.6a13.108,13.108,0,0,0-4.481-1.12,6.147,6.147,0,0,1-5.6,0,13.694,13.694,0,0,0-4.394,1.082,9.853,9.853,0,0,1,.523,6.991,9.835,9.835,0,0,1,13.446-.007,9.821,9.821,0,0,1,.507-6.951ZM142.5,97.429c6.913.71,7.8,4.089,7.8,7.747v3.665a13.377,13.377,0,0,1-3.511,1.594v-4.4l-.759,4.61a23.284,23.284,0,0,1-2.974.567,22.156,22.156,0,0,0-2.931-.679,9.853,9.853,0,0,0,2.376-13.11Zm-.834-1.133a5.76,5.76,0,1,0-7.512-3.483A9.853,9.853,0,0,1,141.662,96.3ZM91.9,102.685a9.862,9.862,0,0,0,3.9,7.854,22.159,22.159,0,0,0-2.931.679,23.284,23.284,0,0,1-2.974-.567l-.759-4.61v4.4a13.378,13.378,0,0,1-3.511-1.594v-3.665c0-3.659.885-7.038,7.8-7.747A9.809,9.809,0,0,0,91.9,102.685Zm9.867-9.873A5.75,5.75,0,1,0,94.254,96.3,9.853,9.853,0,0,1,101.766,92.812Zm48.048,30.214v4.954a18.3,18.3,0,0,1-5.382,2.548v-6.268l-1.083,6.577a35.711,35.711,0,0,1-7.9,1.105c-.2-4.786-1.873-9.964-10.261-11.728a10.4,10.4,0,0,0,3.2-7.508c0-.181,0-.361-.014-.539q.833-.135,1.765-.226a8.784,8.784,0,0,0,8,.007C148.021,112.944,149.814,117.786,149.814,123.027ZM134.144,110.9a8.217,8.217,0,1,0-8.216-8.217A8.217,8.217,0,0,0,134.144,110.9Z" transform="translate(771.953 211.382)" fill="#fff"></path></g></svg>