<svg xmlns="http://www.w3.org/2000/svg" width="137.101" height="149.25" viewBox="0 0 137.101 149.25">
  <g id="Group_64501" data-name="Group 64501" transform="translate(-751.445 -100.663)">
    <path id="Path_211615" data-name="Path 211615" d="M881.871,150.85l-32.748-17.079v.566H809.058v12.787a9.515,9.515,0,0,0,8.95,10.016h1.065c7.247,0,9.378-5.327,10.017-10.016h20.033a29.386,29.386,0,0,1-8.1,21.311,29.985,29.985,0,0,1-21.311,8.738c-11.935,0-21.312-5.328-26-14.067a46.184,46.184,0,0,1-4.05-20.031v-9.31L756.909,150.85c-4.968,2.592-4.968,11.974,0,14.564l56.626,29.534a12.372,12.372,0,0,0,11.708,0l56.628-29.534C886.839,162.824,886.839,153.442,881.871,150.85Z" transform="translate(0.606 29.899)" fill="#006885"/>
    <path id="Path_211616" data-name="Path 211616" d="M820,208.854a18.676,18.676,0,0,1-8.661-2.154l-56.626-29.534a6.068,6.068,0,0,1,5.613-10.761l56.626,29.534a6.343,6.343,0,0,0,6.095,0l56.628-29.534a6.068,6.068,0,1,1,5.613,10.761L828.655,206.7A18.678,18.678,0,0,1,820,208.854Z" transform="translate(0 41.058)" fill="#3ccbaa"/>
    <path id="Pfad_1" data-name="Pfad 1" d="M811.685,92.423c18.114,0,29.409,13.427,29.409,30.689V150.6H801.029V163.39a9.516,9.516,0,0,0,8.95,10.016h1.065c7.247,0,9.378-5.327,10.017-10.016h20.032A29.386,29.386,0,0,1,833,184.7a29.986,29.986,0,0,1-21.311,8.738c-11.935,0-21.312-5.328-26-14.067a46.184,46.184,0,0,1-4.05-20.031V126.522c0-8.1.639-14.7,4.05-20.032,4.688-8.738,14.065-14.067,26-14.067m-11.3,42.2h20.032v-11.3c0-7.246-4.05-11.3-10.017-11.3s-10.016,4.048-10.016,11.3v11.3m11.3-47.591c-13.7,0-24.862,6.1-30.656,16.73-3.97,6.315-4.787,13.674-4.787,22.763v32.737a51.262,51.262,0,0,0,4.52,22.321l.08.174.09.17c5.766,10.745,16.975,16.909,30.753,16.909a35.257,35.257,0,0,0,25.125-10.318l.036-.036.035-.036a34.647,34.647,0,0,0,9.606-25.2L846.344,158H816.352l-.635,4.666c-.729,5.35-2.916,5.35-4.673,5.35h-.934a3.709,3.709,0,0,1-2.533-1.224,4.441,4.441,0,0,1-1.16-3.172l.005-.113V156h40.065V123.112c0-9.9-3.318-18.947-9.341-25.475-6.311-6.84-15.354-10.608-25.462-10.608Z" transform="translate(8.635 13.633)" fill="#006885"/>
  </g>
</svg>
