<svg xmlns="http://www.w3.org/2000/svg" width="184.675" height="32.229" viewBox="0 0 184.675 32.229">
  <g id="Gruppe_38775" data-name="Gruppe 38775" transform="translate(-46 -184.615)">
    <path id="Pfad_1" data-name="Pfad 1" d="M45.174,21.868v3.086a2.186,2.186,0,0,0,2.314,2.314c1.7,0,2.16-1.234,2.314-2.314h4.628a7.007,7.007,0,0,1-1.851,4.937A6.863,6.863,0,0,1,47.643,31.9a6.519,6.519,0,0,1-6.017-3.24,10.3,10.3,0,0,1-.926-4.628v-7.56a8.586,8.586,0,0,1,.926-4.628A6.52,6.52,0,0,1,47.643,8.6c4.166,0,6.788,3.086,6.788,7.1v6.325H45.174Zm0-3.548h4.474V15.7c0-1.7-.926-2.623-2.314-2.623S45.02,14,45.02,15.7V18.32Z" transform="translate(5.3 184.947)" fill="#3ccbaa"/>
    <path id="Pfad_2" data-name="Pfad 2" d="M51.6,8.809h4.628v2.16h.154A4.867,4.867,0,0,1,60.7,8.5c2.314,0,4.783,1.543,4.783,5.554V31.642H60.857V15.751c0-1.7-.771-2.777-2.314-2.777-1.7,0-2.314,1.08-2.314,3.086V31.488H51.6Z" transform="translate(11.217 184.895)" fill="#006885"/>
    <path id="Pfad_3" data-name="Pfad 3" d="M90.35,11.143,87.573,25.336h-.154L84.95,11.143H81.4L78.779,25.336h-.154L75.848,11.143H68.443V4.2H63.814v6.943H61.5v3.548h2.314V28.576c0,2.468,1.389,5.4,5.554,5.4H71.22v-4.32c-2.006,0-2.777-.154-2.777-2.314V14.691h3.548l4.474,19.285h4.011L82.945,20.4H83.1l2.468,13.577h4.011l5.4-22.833Z" transform="translate(16.59 182.561)" fill="#006885"/>
    <path id="Pfad_4" data-name="Pfad 4" d="M84.6,4h4.628V8.628H84.6Zm0,7.251h4.628V34.084H84.6Z" transform="translate(29.128 182.451)" fill="#006885"/>
    <path id="Pfad_5" data-name="Pfad 5" d="M94.774,24.954a2.186,2.186,0,0,0,2.314,2.314c1.7,0,2.16-1.234,2.314-2.314h4.628a7.007,7.007,0,0,1-1.851,4.937A6.863,6.863,0,0,1,97.243,31.9a6.519,6.519,0,0,1-6.017-3.24,10.3,10.3,0,0,1-.926-4.628v-7.56a8.585,8.585,0,0,1,.926-4.628A6.519,6.519,0,0,1,97.243,8.6c4.166,0,6.788,3.086,6.788,7.251H99.4c0-1.851-.926-2.777-2.314-2.777S94.774,14,94.774,15.7v9.257Z" transform="translate(32.223 184.947)" fill="#006885"/>
    <path id="Pfad_6" data-name="Pfad 6" d="M100.4,4h4.628V21.125h.154L110.737,11.1h4.628l-5.4,9.257L116.6,33.93h-4.937L107.5,24.056l-2.16,3.394v6.325h-4.628V4Z" transform="translate(37.704 182.451)" fill="#006885"/>
    <path id="Pfad_7" data-name="Pfad 7" d="M111.6,4h4.628V27.6c0,1.7.463,2.16,2.314,2.314v4.32c-4.165,0-6.788-1.08-6.788-6.325V4Z" transform="translate(43.783 182.451)" fill="#006885"/>
    <path id="Pfad_8" data-name="Pfad 8" d="M121.474,21.868v3.086a2.186,2.186,0,0,0,2.314,2.314c1.7,0,2.16-1.234,2.314-2.314h4.628a7.007,7.007,0,0,1-1.851,4.937,6.863,6.863,0,0,1-4.937,2.006,6.52,6.52,0,0,1-6.017-3.24A10.3,10.3,0,0,1,117,24.028v-7.56a8.586,8.586,0,0,1,.926-4.628,6.52,6.52,0,0,1,6.017-3.24c4.165,0,6.788,3.086,6.788,7.1v6.325h-9.257Zm0-3.548h4.474V15.7c0-1.7-.926-2.623-2.314-2.623S121.32,14,121.32,15.7V18.32Z" transform="translate(46.715 184.947)" fill="#006885"/>
    <path id="Pfad_9" data-name="Pfad 9" d="M128,8.809h4.628v2.468c1.851-1.7,3.394-2.777,6.017-2.777v4.937a4.5,4.5,0,0,0-1.389-.309c-2.006,0-4.628,1.234-4.628,4.937V31.642H128Z" transform="translate(52.686 184.895)" fill="#006885"/>
    <rect id="Rechteck_1" data-name="Rechteck 1" width="4.628" height="4.628" transform="translate(191.33 211.906)" fill="#3ccbaa"/>
    <path id="Pfad_17422" data-name="Pfad 17422" d="M195.519,316.84v-2.065q-.449.494-.852.921a4.706,4.706,0,0,1-.9.74,4.2,4.2,0,0,1-1.122.493,5.41,5.41,0,0,1-1.481.18,4.108,4.108,0,0,1-4-2.155,6.076,6.076,0,0,1-.584-1.884,19.859,19.859,0,0,1-.179-3.008V301.4a35.26,35.26,0,0,1,.134-3.636,4.339,4.339,0,0,1,2.109-3.365,4.55,4.55,0,0,1,2.559-.584,4.731,4.731,0,0,1,2.4.606,5.546,5.546,0,0,1,1.818,1.729h.089V284.881H200.1V316.84Zm-4.533-7.406a4.164,4.164,0,0,0,.538,2.245,1.872,1.872,0,0,0,1.707.852,2.024,2.024,0,0,0,1.661-.784,3.177,3.177,0,0,0,.627-2.043v-8.842a2.487,2.487,0,0,0-.65-1.772,2.145,2.145,0,0,0-1.638-.7,1.877,1.877,0,0,0-1.773.807,3.674,3.674,0,0,0-.471,1.886Z" transform="translate(12.668 -100.266)" fill="#3ccbaa"/>
    <path id="Pfad_17423" data-name="Pfad 17423" d="M214.106,305.248h-9.067v3.1a2.2,2.2,0,0,0,.606,1.661,2.26,2.26,0,0,0,1.639.583,1.8,1.8,0,0,0,1.727-.763,4.144,4.144,0,0,0,.517-1.526h4.578a6.554,6.554,0,0,1-1.84,4.847,6.456,6.456,0,0,1-2.155,1.481,7.112,7.112,0,0,1-2.827.539,7.015,7.015,0,0,1-3.659-.9,6.075,6.075,0,0,1-2.984-4.443,16.82,16.82,0,0,1-.18-2.559v-7.5a16.837,16.837,0,0,1,.18-2.558,6.082,6.082,0,0,1,2.984-4.444,7.015,7.015,0,0,1,3.659-.9,7.281,7.281,0,0,1,2.85.538,6.415,6.415,0,0,1,2.177,1.482,7.359,7.359,0,0,1,1.8,5.072Zm-9.067-3.59h4.489v-2.6a2.778,2.778,0,0,0-.607-1.954,2.39,2.39,0,0,0-3.277,0,2.778,2.778,0,0,0-.606,1.954Z" transform="translate(16.569 -98.326)" fill="#3ccbaa"/>
  </g>
</svg>
