<svg xmlns="http://www.w3.org/2000/svg" viewBox="0 0 24 24">
  <defs>
    <style>
      .cls-1 {
        fill: none;
      }

      .cls-2 {
        fill: #434447;
      }

      .cls-3 {
        fill: #fff;
        fill-rule: evenodd;
      }
    </style>
  </defs>
  <g id="Groupe_7709" data-name="Groupe 7709" transform="translate(-281 -106)">
    <rect id="Rectangle_11532" data-name="Rectangle 11532" class="cls-1" width="24" height="24" transform="translate(281 106)"/>
    <g id="SAP_2011_logo" transform="translate(282.61 113.234)">
      <path id="path3060" class="cls-2" d="M0,0V10.766H11L21.762,0H0Z"/>
      <path id="path3100" class="cls-3" d="M13.99,11.123h-.472V9.4h.472c.63,0,1.131.207,1.131.852,0,.665-.5.874-1.131.874M8.913,12.357a1.959,1.959,0,0,1-.686-.122l.679-2.143h.015l.665,2.149a2,2,0,0,1-.672.116M13.865,8H11.723V13.09L9.852,8H8L6.4,12.255c-.169-1.073-1.281-1.445-2.155-1.722-.576-.185-1.189-.458-1.184-.76,0-.247.329-.476.97-.441A3.477,3.477,0,0,1,5.6,9.754l.744-1.3a5.787,5.787,0,0,0-2.426-.575h0a2.949,2.949,0,0,0-2.142.784,1.812,1.812,0,0,0-.513,1.25,1.678,1.678,0,0,0,.735,1.495,5.055,5.055,0,0,0,1.457.667c.6.183,1.081.344,1.075.685a.5.5,0,0,1-.141.333.942.942,0,0,1-.691.218,2.967,2.967,0,0,1-1.774-.506l-.661,1.314a4.942,4.942,0,0,0,2.425.645h.112a2.937,2.937,0,0,0,1.843-.619l.079-.069-.214.576H7.444l.327-.994a3.72,3.72,0,0,0,2.26.009l.314.984h3.174V12.6h.693c1.672,0,2.663-.851,2.663-2.28,0-1.59-.962-2.319-3.009-2.319" transform="translate(-0.95 -5.972)"/>
    </g>
  </g>
</svg>
