<svg xmlns="http://www.w3.org/2000/svg" viewBox="0 0 24 24">
  <defs>
    <style>
      .cls-1 {
        fill: none;
      }

      .cls-2 {
        fill: #434447;
      }

      .cls-3 {
        fill: #fff;
      }
    </style>
  </defs>
  <g id="abap" transform="translate(-280 -107)">
    <rect id="Rectangle_11532" data-name="Rectangle 11532" class="cls-1" width="24" height="24" transform="translate(280 107)"/>
    <path id="Tracé_12231" data-name="Tracé 12231" class="cls-2" d="M4.544.1H17.8a3.545,3.545,0,0,1,3.544,3.544v8.912A3.545,3.545,0,0,1,17.8,16.1H4.544A3.545,3.545,0,0,1,1,12.556V3.644A3.545,3.545,0,0,1,4.544.1Z" transform="translate(281.013 110.9)"/>
    <path id="Tracé_12232" data-name="Tracé 12232" class="cls-3" d="M-4.758-.879H-6.3L-6.592,0h-.935l1.588-4.266h.814L-3.527,0h-.935Zm-1.3-.712H-5l-.536-1.6ZM-2.25-1.5V0h-.879V-4.266h1.664A1.925,1.925,0,0,1-.62-4.09a1.3,1.3,0,0,1,.561.5,1.393,1.393,0,0,1,.2.737,1.225,1.225,0,0,1-.429.989A1.788,1.788,0,0,1-1.479-1.5Zm0-.712h.785a.772.772,0,0,0,.532-.164A.6.6,0,0,0-.75-2.848a.7.7,0,0,0-.185-.507.689.689,0,0,0-.51-.2H-2.25Zm5.558.366H1.62V-.706H3.6V0H.741V-4.266H3.595v.712H1.62v1.017H3.308Zm2.335-.946.8-1.471H7.453L6.211-2.15,7.485,0H6.463l-.82-1.494L4.822,0H3.8L5.074-2.15,3.832-4.266H4.843Z" transform="translate(292 121)"/>
  </g>
</svg>
