<svg id="Layer_1" data-name="Layer 1" xmlns="http://www.w3.org/2000/svg" viewBox="0 0 24 24"><defs><style>.cls-1{fill:#bfbfbf;}.cls-2{fill:#424242;}.cls-3{fill:#868686;}.cls-4{fill:#555;}</style></defs><path class="cls-1" d="M4.13,16.21l2.25-.44.27.09,5.43,1.36,0,1.37-7.76-2.2-.15-.18"/><path class="cls-1" d="M19.87,16.21l-2.28-.62-.24.27-5.43,1.36,0,1.64,7.92-2.65"/><path class="cls-2" d="M11.92,6.87l.38-1.81,7.57,2.73L19.74,8l-2.39.11L11.92,6.87"/><path class="cls-3" d="M6.64,15.86V8.14L6.4,8,4.13,7.79l-.07.27V16l.07.26,2.51-.35"/><path class="cls-2" d="M12.08,6.87l0-1.46L4.22,7.64l-.09.15,2.52.35,5.43-1.27"/><path class="cls-4" d="M12.13,1.27V22.79L12,23,3,18.45V5.56L12,1ZM9.35,6.22,4.13,7.79v8.42l5.22,1.57Zm8,9.64V8.14l2.51-.35L20,8V16l-.14.25-2.51-.35"/><path class="cls-3" d="M12,1l9,4.56V18.45L12,23Zm2.66,16.78,5.22-1.57V7.79L14.65,6.22Z"/></svg>