<svg xmlns="http://www.w3.org/2000/svg" viewBox="0 0 24 24">
  <defs>
    <style>
      .cls-1 {
        fill: none;
      }

      .cls-2 {
        fill: #434447;
      }

      .cls-3 {
        fill: #fff;
      }
    </style>
  </defs>
  <g id="Groupe_7713" data-name="Groupe 7713" transform="translate(-281 -238)">
    <rect id="Rectangle_11536" data-name="Rectangle 11536" class="cls-1" width="24" height="24" transform="translate(281 238)"/>
    <path id="Tracé_12226" data-name="Tracé 12226" class="cls-2" d="M-1.287.1H13.456A3.545,3.545,0,0,1,17,3.644v8.912A3.545,3.545,0,0,1,13.456,16.1H-1.287a3.545,3.545,0,0,1-3.544-3.544V3.644A3.545,3.545,0,0,1-1.287.1Z" transform="translate(287.013 241.9)"/>
    <path id="Tracé_12229" data-name="Tracé 12229" class="cls-3" d="M-5.915-1.421A1.509,1.509,0,0,1-6.423-.337a1.785,1.785,0,0,1-1.208.4A1.605,1.605,0,0,1-8.922-.494a2.264,2.264,0,0,1-.47-1.516v-.261a2.557,2.557,0,0,1,.217-1.084,1.625,1.625,0,0,1,.62-.719,1.736,1.736,0,0,1,.936-.25,1.739,1.739,0,0,1,1.189.4,1.622,1.622,0,0,1,.521,1.11h-.879a.891.891,0,0,0-.23-.6.852.852,0,0,0-.6-.186.747.747,0,0,0-.658.315,1.765,1.765,0,0,0-.224.977v.322A1.889,1.889,0,0,0-8.292-.979a.733.733,0,0,0,.661.319.868.868,0,0,0,.608-.186.84.84,0,0,0,.23-.576Zm4.081-.615a2.575,2.575,0,0,1-.223,1.1A1.677,1.677,0,0,1-2.694-.2a1.763,1.763,0,0,1-.951.258A1.775,1.775,0,0,1-4.591-.2a1.693,1.693,0,0,1-.645-.728,2.5,2.5,0,0,1-.231-1.088v-.211A2.562,2.562,0,0,1-5.24-3.333,1.691,1.691,0,0,1-4.6-4.068a1.765,1.765,0,0,1,.948-.256,1.765,1.765,0,0,1,.948.256,1.691,1.691,0,0,1,.642.735,2.554,2.554,0,0,1,.227,1.106Zm-.891-.193a1.8,1.8,0,0,0-.24-1.02A.783.783,0,0,0-3.65-3.6a.783.783,0,0,0-.683.344,1.775,1.775,0,0,0-.243,1.009v.208a1.818,1.818,0,0,0,.24,1.014.781.781,0,0,0,.691.36.774.774,0,0,0,.68-.347,1.807,1.807,0,0,0,.24-1.012ZM-1.2,0V-4.266H.3a1.962,1.962,0,0,1,1.178.3,1.017,1.017,0,0,1,.4.872.964.964,0,0,1-.161.552.931.931,0,0,1-.448.35.9.9,0,0,1,.517.331.979.979,0,0,1,.189.609,1.126,1.126,0,0,1-.393.932A1.767,1.767,0,0,1,.463,0Zm.879-1.857V-.706H.437A.727.727,0,0,0,.921-.854.507.507,0,0,0,1.1-1.263a.536.536,0,0,0-.606-.595Zm0-.621h.65Q1-2.49,1-3.009a.49.49,0,0,0-.168-.417A.886.886,0,0,0,.3-3.554H-.316Zm6.454.442a2.575,2.575,0,0,1-.223,1.1A1.677,1.677,0,0,1,5.278-.2a1.763,1.763,0,0,1-.951.258A1.775,1.775,0,0,1,3.381-.2a1.693,1.693,0,0,1-.645-.728A2.5,2.5,0,0,1,2.5-2.013v-.211a2.562,2.562,0,0,1,.227-1.109,1.691,1.691,0,0,1,.642-.735,1.765,1.765,0,0,1,.948-.256,1.765,1.765,0,0,1,.948.256,1.691,1.691,0,0,1,.642.735,2.554,2.554,0,0,1,.227,1.106Zm-.891-.193a1.8,1.8,0,0,0-.24-1.02A.783.783,0,0,0,4.321-3.6a.783.783,0,0,0-.683.344A1.775,1.775,0,0,0,3.4-2.244v.208a1.818,1.818,0,0,0,.24,1.014.781.781,0,0,0,.691.36.774.774,0,0,0,.68-.347,1.807,1.807,0,0,0,.24-1.012ZM7.655-.706H9.521V0H6.776V-4.266h.879Z" transform="translate(293 252)"/>
  </g>
</svg>
