<svg id="logo" xmlns="http://www.w3.org/2000/svg" viewBox="0 0 24 24"><title>java-color</title><path d="M10.35,12.26s-.47.28.34.37a6.88,6.88,0,0,0,2.54-.11,4,4,0,0,0,.68.33c-2.41,1-5.45-.06-3.56-.59Z" style="fill:#0074bd;fill-rule:evenodd"/><path d="M10.06,10.92s-.53.39.28.47a9.68,9.68,0,0,0,3.28-.16,1.5,1.5,0,0,0,.51.31c-2.91.85-6.15.07-4.07-.62Z" style="fill:#0074bd;fill-rule:evenodd"/><path d="M12.54,8.64a.89.89,0,0,1-.16,1.29s1.51-.77.82-1.75-1.15-1.35,1.53-2.91c0,0-4.2,1.05-2.19,3.37Z" style="fill:#ea2d2e;fill-rule:evenodd"/><path d="M15.72,13.26s.35.29-.38.51c-1.39.42-5.78.55-7,0-.44-.19.38-.45.64-.51a1.88,1.88,0,0,1,.42,0c-.48-.35-3.15.67-1.35,1,4.9.8,8.94-.36,7.67-.93Z" style="fill:#0074bd;fill-rule:evenodd"/><path d="M10.58,9.53s-2.23.53-.79.72a17.34,17.34,0,0,0,3,0c.93-.08,1.85-.25,1.85-.25a4.3,4.3,0,0,0-.56.3c-2.27.6-6.65.32-5.39-.29a4.27,4.27,0,0,1,1.94-.45Z" style="fill:#0074bd;fill-rule:evenodd"/><path d="M14.59,11.76c2.3-1.19,1.23-2.34.49-2.19l-.26.07A.4.4,0,0,1,15,9.49c1.48-.52,2.61,1.53-.47,2.34l.05-.07Z" style="fill:#0074bd;fill-rule:evenodd"/><path d="M13.2,2.76S14.47,4,12,6c-2,1.58-.45,2.48,0,3.5-1.16-1.05-2-2-1.44-2.83.84-1.27,3.17-1.88,2.66-3.91Z" style="fill:#ea2d2e;fill-rule:evenodd"/><path d="M10.81,15c2.21.14,5.61-.08,5.69-1.12,0,0-.16.39-1.83.71a18.28,18.28,0,0,1-5.6.08s.28.24,1.74.33Z" style="fill:#0074bd;fill-rule:evenodd"/><path d="M16.4,16.89h-.07v0h.18v0h-.07v.19h0v-.19Zm.36,0h0l-.07.18h0l-.07-.18h0v.18h0v-.23h.06l.06.16.07-.16h.06v.23h0V16.9Z" style="fill:#ea2d2e;fill-rule:evenodd"/><path d="M10.44,19a1,1,0,0,1-.62.29.4.4,0,0,1-.44-.45c0-.29.16-.5.82-.5h.24V19Zm.58.65v-2c0-.51-.29-.85-1-.85A2.68,2.68,0,0,0,9,17l.09.36a2.35,2.35,0,0,1,.82-.17c.41,0,.58.17.58.5V18h-.2c-1,0-1.44.38-1.44,1s.3.78.85.78a1.3,1.3,0,0,0,.87-.36l.05.3Z" style="fill:#ea2d2e;fill-rule:evenodd"/><path d="M12.94,19.66h-.72l-.86-2.81H12l.53,1.73.12.52a11.22,11.22,0,0,0,.56-2.25h.61a11.29,11.29,0,0,1-.87,2.81Z" style="fill:#ea2d2e;fill-rule:evenodd"/><path d="M15.7,19a1,1,0,0,1-.63.29.41.41,0,0,1-.44-.45c0-.29.17-.5.82-.5h.25V19Zm.57.65v-2c0-.51-.29-.85-1-.85a2.59,2.59,0,0,0-1.06.23l.08.36a2.36,2.36,0,0,1,.83-.17c.4,0,.58.17.58.5V18h-.21c-1,0-1.43.38-1.43,1s.29.78.85.78a1.32,1.32,0,0,0,.87-.36l0,.3Z" style="fill:#ea2d2e;fill-rule:evenodd"/><path d="M8.17,20.14a1.52,1.52,0,0,1-.72.54l-.28-.34a1.18,1.18,0,0,0,.5-.46,2,2,0,0,0,.1-.82V15.85h.62V19a1.79,1.79,0,0,1-.22,1.12Z" style="fill:#ea2d2e;fill-rule:evenodd"/></svg>