<svg xmlns="http://www.w3.org/2000/svg" viewBox="0 0 24 24">
  <defs>
    <style>
      .cls-1 {
        fill: none;
      }

      .cls-2 {
        fill: #434447;
      }

      .cls-3 {
        fill: #fff;
      }
    </style>
  </defs>
  <g id="Groupe_7725" data-name="Groupe 7725" transform="translate(-281 -667)">
    <rect id="Rectangle_11549" data-name="Rectangle 11549" class="cls-1" width="24" height="24" transform="translate(281 667)"/>
    <path id="Tracé_12230" data-name="Tracé 12230" class="cls-2" d="M4.544.1h8.912A3.545,3.545,0,0,1,17,3.644v8.912A3.545,3.545,0,0,1,13.456,16.1H4.544A3.545,3.545,0,0,1,1,12.556V3.644A3.545,3.545,0,0,1,4.544.1Z" transform="translate(284.013 670.9)"/>
    <path id="Tracé_12231" data-name="Tracé 12231" class="cls-3" d="M-3.933-1.562h-.7V0h-.879V-4.266h1.585a1.792,1.792,0,0,1,1.166.337,1.163,1.163,0,0,1,.41.952,1.312,1.312,0,0,1-.189.728,1.289,1.289,0,0,1-.573.464L-2.19-.041V0h-.943Zm-.7-.712h.709a.726.726,0,0,0,.513-.168.6.6,0,0,0,.182-.464A.644.644,0,0,0-3.4-3.381a.712.712,0,0,0-.526-.173h-.706ZM-.8-1.5V0h-.879V-4.266H-.019a1.925,1.925,0,0,1,.845.176,1.3,1.3,0,0,1,.561.5,1.393,1.393,0,0,1,.2.737,1.225,1.225,0,0,1-.429.989A1.788,1.788,0,0,1-.034-1.5Zm0-.712h.785a.772.772,0,0,0,.532-.164A.6.6,0,0,0,.7-2.848a.7.7,0,0,0-.185-.507.689.689,0,0,0-.51-.2H-.8ZM5.562-.539A1.526,1.526,0,0,1,4.891-.1,2.81,2.81,0,0,1,3.93.059a1.9,1.9,0,0,1-.971-.242,1.612,1.612,0,0,1-.645-.7,2.469,2.469,0,0,1-.233-1.081v-.29A2.623,2.623,0,0,1,2.3-3.362a1.593,1.593,0,0,1,.621-.715,1.789,1.789,0,0,1,.951-.248,1.782,1.782,0,0,1,1.187.362,1.546,1.546,0,0,1,.507,1.053H4.707a.851.851,0,0,0-.259-.536.828.828,0,0,0-.552-.17.779.779,0,0,0-.683.337,1.772,1.772,0,0,0-.237,1V-2A1.687,1.687,0,0,0,3.23-.99a.873.873,0,0,0,.747.343.975.975,0,0,0,.706-.211v-.735h-.8v-.647H5.562Z" transform="translate(293 681)"/>
  </g>
</svg>
