<svg id="Calque_1" data-name="Calque 1" xmlns="http://www.w3.org/2000/svg" viewBox="0 0 2156.73 512"><defs><style>.cls-1{fill:#f3702a;}.cls-2{fill:#1b171b;}</style></defs><title>SonarCloud</title><g id="SonarCloud_Black" data-name="SonarCloud Black"><path class="cls-1" d="M2075.2,258.3a96.69,96.69,0,0,0-46.11-31c0-.37,0-.75,0-1.12a96.29,96.29,0,1,0-192.58,0c0,.43,0,.86,0,1.29a96.3,96.3,0,1,0,96.59,160.38A96.26,96.26,0,0,0,2075.2,258.3Zm-74.49,133.06a72.13,72.13,0,0,1-72-72.05,12.12,12.12,0,0,0-24.24,0A95.73,95.73,0,0,0,1918,368.58a72,72,0,1,1-27.6-116.89l.28.1c2.72.93,6.66,2.75,7.86,3.78a12.12,12.12,0,1,0,15.78-18.41c-5.28-4.52-13.65-7.57-15.68-8.27a96.06,96.06,0,0,0-33.17-5.87c-1.55,0-3.1,0-4.64.12a72,72,0,1,1,113.74,61.74,12.12,12.12,0,0,0,14.08,19.74,96.67,96.67,0,0,0,37-52.91,72.05,72.05,0,0,1-24.93,139.65Z"/><path class="cls-2" d="M93.66,348.2c9.93,6.06,30.54,13.16,46.48,13.16,16.35,0,23.08-5.7,23.08-14.55s-5.3-13.16-25.55-19.89C101.8,314.84,88,295.31,88.32,274.74c0-32.33,27.71-56.8,70.64-56.8,20.25,0,38.34,4.58,49,9.92l-9.57,37.27c-7.81-4.26-22.72-9.92-37.63-9.92-13.15,0-20.61,5.3-20.61,14.19,0,8.17,6.78,12.44,28.06,19.89,33,11.36,46.88,28,47.2,53.61,0,32.29-25.55,56.09-75.26,56.09-22.72,0-42.93-5-56.08-12.08Z"/><path class="cls-2" d="M405.38,306.67c0,63.54-45.08,92.68-91.6,92.68C263,399.35,224,366,224,309.86s36.91-91.92,92.68-91.92C369.9,217.94,405.38,254.49,405.38,306.67ZM279.7,308.46c0,29.82,12.43,52.18,35.51,52.18,21,0,34.44-21,34.44-52.18,0-25.91-9.92-52.22-34.44-52.22C289.3,256.24,279.7,282.87,279.7,308.46Z"/><path class="cls-2" d="M424.63,277.21c0-21.64-.72-40.1-1.43-55.37h46.87l2.47,23.76h1.08c7.1-11,24.83-27.66,53.57-27.66,35.52,0,62.15,23.4,62.15,74.54v103h-54V299.21c0-22.36-7.81-37.62-27.34-37.62-14.91,0-23.76,10.28-27.3,20.25-1.44,3.18-2.16,8.49-2.16,13.47V395.44H424.63Z"/><path class="cls-2" d="M717.17,395.44,714,378h-1c-11.36,13.87-29.14,21.33-49.71,21.33-35.16,0-56.09-25.6-56.09-53.26,0-45.08,40.46-66.77,101.89-66.41v-2.47c0-9.25-5-22.36-31.61-22.36-17.74,0-36.55,6-47.91,13.11l-10-34.76c12.08-6.77,35.88-15.26,67.45-15.26,57.87,0,76.33,34.08,76.33,74.9v60.35c0,16.66.72,32.64,2.51,42.25Zm-6.38-82c-28.38-.36-50.42,6.41-50.42,27.34,0,13.87,9.25,20.61,21.32,20.61a29.48,29.48,0,0,0,28-19.89,38.59,38.59,0,0,0,1.07-9.25Z"/><path class="cls-2" d="M791.79,279c0-25.56-.72-42.22-1.43-57.13h46.51l1.8,31.93h1.39c8.89-25.19,30.18-35.83,46.88-35.83a58,58,0,0,1,11.36.68V269.4A76.44,76.44,0,0,0,883.75,268c-19.89,0-33.36,10.69-37,27.35a66.32,66.32,0,0,0-1,12.08v88.05h-54Z"/><path class="cls-2" d="M1039.29,389c-8.17,4.27-26.31,10-49.35,10-51.86,0-85.58-35.16-85.58-87.7,0-52.89,36.23-91.24,92.32-91.24,18.45,0,34.8,4.62,43.29,8.89l-7.1,24.12c-7.45-4.27-19.17-8.18-36.19-8.18-39.43,0-60.71,29.14-60.71,65,0,39.78,25.55,64.25,59.63,64.25,17.74,0,29.46-4.58,38.35-8.49Z"/><path class="cls-2" d="M1061.69,143.36h31.25V395.44h-31.25Z"/><path class="cls-2" d="M1286.79,308.1c0,63.54-44,91.25-85.59,91.25-46.47,0-82.35-34.09-82.35-88.42,0-57.52,37.63-91.24,85.22-91.24C1253.42,219.69,1286.79,255.57,1286.79,308.1Zm-136.33,1.76c0,37.63,21.65,66.05,52.18,66.05,29.81,0,52.18-28.06,52.18-66.73,0-29.14-14.55-66.05-51.46-66.05S1150.46,277.21,1150.46,309.86Z"/><path class="cls-2" d="M1455.8,348.56c0,17.74.36,33.37,1.43,46.88h-27.7l-1.76-28.06h-.71c-8.17,13.83-26.27,32-56.81,32-27,0-59.27-14.91-59.27-75.26V223.6h31.21v95.15c0,32.64,10,54.69,38.35,54.69,21,0,35.51-14.59,41.18-28.43a45.31,45.31,0,0,0,2.83-16V223.6h31.25Z"/><path class="cls-2" d="M1641.87,143.36V351c0,15.27.36,32.69,1.43,44.41h-28.06l-1.43-29.82h-.68c-9.61,19.18-30.54,33.73-58.6,33.73-41.53,0-73.5-35.16-73.5-87.34-.32-57.16,35.16-92.32,77-92.32,26.27,0,44,12.44,51.82,26.27h.72V143.36Zm-31.25,150.19a56.62,56.62,0,0,0-1.4-13.15c-4.62-19.89-21.68-36.19-45.08-36.19-32.33,0-51.5,28.38-51.5,66.36,0,34.8,17.06,63.54,50.78,63.54,20.93,0,40.1-13.83,45.8-37.27a55.49,55.49,0,0,0,1.4-13.47Z"/></g></svg>