<?xml version="1.0" encoding="utf-8"?>
<!-- Generator: Adobe Illustrator 23.0.3, SVG Export Plug-In . SVG Version: 6.00 Build 0)  -->
<svg version="1.1" id="Calque_1" xmlns="http://www.w3.org/2000/svg" xmlns:xlink="http://www.w3.org/1999/xlink" x="0px" y="0px"
	 viewBox="0 0 1414.8 512" style="enable-background:new 0 0 1414.8 512;" xml:space="preserve">
<style type="text/css">
	.st0{fill:#CB2029;}
	.st1{fill:#1B171B;}
</style>
<path class="st0" d="M1308.2,455.8c-7.1-7.8-16-17.4-33.5-17.4s-26.3,9.6-33.5,17.4c-6.6,7.2-10.5,10.9-18.8,10.9
	c-8.3,0-12.1-3.8-18.8-10.9c-7.1-7.8-16-17.4-33.5-17.4c-17.4,0-26.3,9.6-33.5,17.4c-6.6,7.2-10.5,10.9-18.8,10.9
	c-8.3,0-12.1-3.8-18.8-10.9c-7.1-7.8-16-17.4-33.5-17.4c-17.4,0-26.3,9.6-33.5,17.4c-6.6,7.2-10.5,10.9-18.8,10.9
	c-8.3,0-12.1-3.8-18.8-10.9c-7.1-7.8-16-17.4-33.5-17.4s-26.3,9.6-33.5,17.4c0,0-5.7,5.7-8,8.8c-2.3,3.1-11.3,15.4-3,21
	c4.7,3.2,11.6-1.4,15.4-4.7c3-2.6,10.3-9.6,10.3-9.6c6.6-7.2,10.5-10.9,18.8-10.9c8.3,0,12.1,3.8,18.8,10.9
	c7.1,7.8,16,17.4,33.5,17.4c17.4,0,26.3-9.6,33.5-17.4c6.6-7.2,10.5-10.9,18.8-10.9s12.1,3.8,18.8,10.9c7.1,7.8,16,17.4,33.5,17.4
	s26.3-9.6,33.5-17.4c6.6-7.2,10.5-10.9,18.8-10.9c8.3,0,12.1,3.8,18.8,10.9c7.1,7.8,16,17.4,33.5,17.4c17.4,0,26.3-9.6,33.5-17.4
	c6.6-7.2,10.5-10.9,18.8-10.9c8.3,0,12.1,3.8,18.8,10.9c0,0,3.8,4.3,8.6,8.5c2,1.7,7.5,7.7,15,6.6c5-0.7,7.1-10.3,0.8-19
	C1313.6,461.6,1308.2,455.8,1308.2,455.8"/>
<path class="st1" d="M93.7,348c9.9,6.1,30.5,13.2,46.5,13.2c16.3,0,23.1-5.7,23.1-14.5c0-8.9-5.3-13.2-25.6-19.9
	c-35.9-12.1-49.7-31.6-49.3-52.2c0-32.3,27.7-56.8,70.6-56.8c20.2,0,38.3,4.6,49,9.9l-9.6,37.3c-7.8-4.3-22.7-9.9-37.6-9.9
	c-13.2,0-20.6,5.3-20.6,14.2c0,8.2,6.8,12.4,28.1,19.9c33,11.4,46.9,28,47.2,53.6c0,32.3-25.6,56.1-75.3,56.1
	c-22.7,0-42.9-5-56.1-12.1L93.7,348z"/>
<path class="st1" d="M405.4,306.4c0,63.5-45.1,92.7-91.6,92.7c-50.7,0-89.8-33.4-89.8-89.5c0-56.1,36.9-91.9,92.7-91.9
	C369.9,217.7,405.4,254.2,405.4,306.4 M279.7,308.2c0,29.8,12.4,52.2,35.5,52.2c21,0,34.4-21,34.4-52.2c0-25.9-9.9-52.2-34.4-52.2
	C289.3,256,279.7,282.6,279.7,308.2"/>
<path class="st1" d="M424.6,277c0-21.6-0.7-40.1-1.4-55.4h46.9l2.5,23.8h1.1c7.1-11,24.8-27.7,53.6-27.7c35.5,0,62.1,23.4,62.1,74.5
	v103h-54V299c0-22.4-7.8-37.6-27.3-37.6c-14.9,0-23.8,10.3-27.3,20.2c-1.4,3.2-2.2,8.5-2.2,13.5v100.1h-53.9V277z"/>
<path class="st1" d="M717.2,395.2l-3.2-17.4h-1c-11.4,13.9-29.1,21.3-49.7,21.3c-35.2,0-56.1-25.6-56.1-53.3
	c0-45.1,40.5-66.8,101.9-66.4V277c0-9.2-5-22.4-31.6-22.4c-17.7,0-36.6,6-47.9,13.1l-10-34.8c12.1-6.8,35.9-15.3,67.4-15.3
	c57.9,0,76.3,34.1,76.3,74.9v60.3c0,16.7,0.7,32.6,2.5,42.3H717.2z M710.8,313.2c-28.4-0.4-50.4,6.4-50.4,27.3
	c0,13.9,9.2,20.6,21.3,20.6c13.5,0,24.5-8.9,28-19.9c0.7-2.8,1.1-6,1.1-9.2V313.2z"/>
<path class="st1" d="M791.8,278.7c0-25.6-0.7-42.2-1.4-57.1h46.5l1.8,31.9h1.4c8.9-25.2,30.2-35.8,46.9-35.8c5,0,7.5,0,11.4,0.7
	v50.8c-3.9-0.7-8.5-1.4-14.6-1.4c-19.9,0-33.4,10.7-37,27.3c-0.7,3.5-1,7.8-1,12.1v88.1h-54V278.7z"/>
<rect x="916.8" y="143.1" class="st1" width="31.3" height="252.1"/>
<path class="st1" d="M1021.2,175.1c0.4,10.6-7.5,19.2-19.9,19.2c-11,0-18.8-8.5-18.8-19.2c0-11,8.2-19.5,19.5-19.5
	C1013.7,155.5,1021.2,164.1,1021.2,175.1 M986.4,223.3h31.3v171.8h-31.3V223.3z"/>
<path class="st1" d="M1055.3,269.9c0-17.7-0.4-32.3-1.4-46.5h27.7l1.8,28.4h0.7c8.5-16.3,28.4-32.3,56.8-32.3
	c23.8,0,60.7,14.2,60.7,73.1v102.6h-31.3v-99.1c0-27.7-10.3-50.8-39.7-50.8c-20.6,0-36.6,14.5-41.9,32c-1.4,3.9-2.2,9.2-2.2,14.5
	v103.3h-31.3V269.9z"/>
<path class="st1" d="M1274.3,174v49.3h44.8v23.8h-44.8v92.6c0,21.3,6.1,33.4,23.4,33.4c8.2,0,14.2-1.1,18.1-2.2l1.4,23.4
	c-6,2.5-15.6,4.3-27.7,4.3c-14.6,0-26.3-4.6-33.7-13.2c-8.8-9.2-12-24.5-12-44.7v-93.7h-26.6v-23.8h26.6v-41.2L1274.3,174z"/>
</svg>
