<?xml version="1.0" encoding="utf-8"?>
<!-- Generator: Adobe Illustrator 24.3.0, SVG Export Plug-In . SVG Version: 6.00 Build 0)  -->
<svg version="1.1" id="Calque_1" xmlns="http://www.w3.org/2000/svg" xmlns:xlink="http://www.w3.org/1999/xlink" x="0px" y="0px"
	 viewBox="0 0 1776.9 512" style="enable-background:new 0 0 1776.9 512;" xml:space="preserve">
<style type="text/css">
	.st0{fill:#1B171B;}
	.st1{fill:#CA2228;}
</style>
<g>
	<g>
		<path class="st0" d="M93.7,348.1c9.9,6.1,30.5,13.2,46.5,13.2c16.3,0,23.1-5.7,23.1-14.5c0-8.9-5.3-13.2-25.6-19.9
			c-35.9-12.1-49.7-31.6-49.3-52.2c0-32.3,27.7-56.8,70.6-56.8c20.2,0,38.3,4.6,49,9.9l-9.6,37.3c-7.8-4.3-22.7-9.9-37.6-9.9
			c-13.2,0-20.6,5.3-20.6,14.2c0,8.2,6.8,12.4,28.1,19.9c33,11.4,46.9,28,47.2,53.6c0,32.3-25.6,56.1-75.3,56.1
			c-22.7,0-42.9-5-56.1-12.1L93.7,348.1z"/>
		<path class="st0" d="M405.4,306.5c0,63.5-45.1,92.7-91.6,92.7c-50.7,0-89.8-33.4-89.8-89.5c0-56.1,36.9-91.9,92.7-91.9
			C369.9,217.8,405.4,254.3,405.4,306.5 M279.7,308.3c0,29.8,12.4,52.2,35.5,52.2c21,0,34.4-21,34.4-52.2c0-25.9-9.9-52.2-34.4-52.2
			C289.3,256.1,279.7,282.7,279.7,308.3"/>
		<path class="st0" d="M424.6,277.1c0-21.6-0.7-40.1-1.4-55.4h46.9l2.5,23.8h1.1c7.1-11,24.8-27.7,53.6-27.7
			c35.5,0,62.1,23.4,62.1,74.5v103h-54v-96.2c0-22.4-7.8-37.6-27.3-37.6c-14.9,0-23.8,10.3-27.3,20.2c-1.4,3.2-2.2,8.5-2.2,13.5
			v100.1h-53.9V277.1z"/>
		<path class="st0" d="M717.2,395.3l-3.2-17.4h-1c-11.4,13.9-29.1,21.3-49.7,21.3c-35.2,0-56.1-25.6-56.1-53.3
			c0-45.1,40.5-66.8,101.9-66.4v-2.5c0-9.2-5-22.4-31.6-22.4c-17.7,0-36.6,6-47.9,13.1l-10-34.8c12.1-6.8,35.9-15.3,67.4-15.3
			c57.9,0,76.3,34.1,76.3,74.9V353c0,16.7,0.7,32.6,2.5,42.3H717.2z M710.8,313.3c-28.4-0.4-50.4,6.4-50.4,27.3
			c0,13.9,9.2,20.6,21.3,20.6c13.5,0,24.5-8.9,28-19.9c0.7-2.8,1.1-6,1.1-9.2V313.3z"/>
		<path class="st0" d="M791.8,278.8c0-25.6-0.7-42.2-1.4-57.1h46.5l1.8,31.9h1.4c8.9-25.2,30.2-35.8,46.9-35.8c5,0,7.5,0,11.4,0.7
			v50.8c-3.9-0.7-8.5-1.4-14.5-1.4c-19.9,0-33.4,10.7-37,27.3c-0.7,3.5-1,7.8-1,12.1v88.1h-54V278.8z"/>
		<rect x="916.8" y="143.2" class="st0" width="31.3" height="252.1"/>
		<path class="st0" d="M1021.2,175.2c0.4,10.6-7.5,19.2-19.9,19.2c-11,0-18.8-8.5-18.8-19.2c0-11,8.2-19.5,19.5-19.5
			C1013.7,155.7,1021.2,164.2,1021.2,175.2 M986.4,223.5h31.3v171.8h-31.3V223.5z"/>
		<path class="st0" d="M1055.3,270c0-17.7-0.4-32.3-1.4-46.5h27.7l1.8,28.4h0.7c8.5-16.3,28.4-32.3,56.8-32.3
			c23.8,0,60.7,14.2,60.7,73.1v102.6h-31.3v-99.1c0-27.7-10.3-50.8-39.7-50.8c-20.6,0-36.6,14.5-41.9,32c-1.4,3.9-2.2,9.2-2.2,14.5
			v103.3h-31.3V270z"/>
		<path class="st0" d="M1274.4,174.1v49.3h44.8v23.8h-44.8v92.6c0,21.3,6.1,33.4,23.4,33.4c8.2,0,14.2-1.1,18.1-2.2l1.4,23.4
			c-6,2.5-15.6,4.3-27.7,4.3c-14.5,0-26.3-4.6-33.7-13.2c-8.8-9.2-12-24.5-12-44.7v-93.7h-26.6v-23.8h26.6v-41.2L1274.4,174.1z"/>
	</g>
	<g>
		<path class="st1" d="M1558.6,425.3c-83.5,0-151.5-67.9-151.5-151.4c0-83.5,68-151.4,151.5-151.4c83.6,0,151.5,67.9,151.5,151.4
			C1710.2,357.4,1642.2,425.3,1558.6,425.3 M1558.6,150c-68.4,0-124,55.6-124,123.9c0,68.3,55.6,123.9,124,123.9s124-55.6,124-123.9
			C1682.7,205.6,1627,150,1558.6,150"/>
	</g>
	<path class="st1" d="M1664.8,265.8c-4-7.9-8.9-17.8-18.6-17.8c-9.7,0-14.7,9.9-18.6,17.8c-3.7,7.4-5.8,11.2-10.4,11.2
		c-4.6,0-6.8-3.8-10.4-11.2c-4-7.9-8.9-17.8-18.6-17.8c-9.7,0-14.7,9.9-18.6,17.8c-3.7,7.4-5.8,11.2-10.4,11.2
		c-4.6,0-6.8-3.8-10.4-11.2c-4-7.9-8.9-17.8-18.6-17.8c-9.7,0-14.7,9.9-18.6,17.8c-3.7,7.4-5.8,11.2-10.4,11.2
		c-4.6,0-6.8-3.8-10.4-11.2c-4-7.9-8.9-17.8-18.6-17.8c-9.7,0-14.7,9.4-18.6,17.3c0,0-3,6.8-4.3,10c-1.3,3.2-6.4,15.3-1.8,21.1
		c2.6,3.3,6.4-1.4,8.6-4.8c1.6-2.6,5.5-10.2,5.5-10.2c4-7,6-10.8,10.6-10.8c4.6,0,6.8,3.8,10.5,11.2c4,7.9,8.9,17.8,18.6,17.8
		c9.7,0,14.7-9.9,18.6-17.8c3.7-7.4,5.8-11.2,10.4-11.2c4.6,0,6.8,3.8,10.4,11.2c4,7.9,8.9,17.8,18.6,17.8c9.7,0,14.7-9.9,18.6-17.8
		c3.7-7.4,5.8-11.2,10.4-11.2c4.6,0,6.8,3.8,10.4,11.2c4,7.9,8.9,17.8,18.6,17.8s14.7-9.9,18.6-17.8c3.7-7.4,5.8-11.2,10.4-11.2
		c4.6,0,6.8,3.8,10.4,11.2c0,0,1.7,3.4,4.2,7.7c1,1.8,5.1,8.6,8.6,8.4c3.2-0.2,4.3-10.3,0.8-19.1
		C1667.8,272.6,1664.8,265.8,1664.8,265.8z"/>
</g>
</svg>
