<svg xmlns="http://www.w3.org/2000/svg" viewBox="0 0 235.688 34.813">
  <defs>
    <style>
      .cls-1 {
        fill: #070706;
      }

      .cls-2 {
        fill: #cb3032;
      }

      .cls-3 {
        fill: #1b171b;
      }
    </style>
  </defs>
  <g id="Groupe_7707" data-name="Groupe 7707" transform="translate(-689.456 -168.5)">
    <path id="Tracé_12229" data-name="Tracé 12229" class="cls-1" d="M6.754,14.378H2.83V20H1.679V6.492H6.067A5.005,5.005,0,0,1,9.444,7.541a3.664,3.664,0,0,1,1.215,2.932A3.663,3.663,0,0,1,9.9,12.764a3.89,3.89,0,0,1-2.041,1.373l3.377,5.743V20H10.02ZM2.83,13.4h3.5a3.244,3.244,0,0,0,2.31-.816,2.766,2.766,0,0,0,.872-2.115A2.778,2.778,0,0,0,8.6,8.255a3.771,3.771,0,0,0-2.551-.789H2.83Zm17.135,5.325a3.608,3.608,0,0,1-3.2,1.457,3.106,3.106,0,0,1-2.44-.932,4.084,4.084,0,0,1-.854-2.76V9.962h1.1v6.392q0,2.867,2.319,2.867a2.843,2.843,0,0,0,3.052-1.995V9.962H21.06V20H19.983ZM25.188,20H24.075V5.75h1.113Zm6.9.186a4.358,4.358,0,0,1-2.315-.631,4.3,4.3,0,0,1-1.61-1.758,5.481,5.481,0,0,1-.575-2.528v-.4a5.907,5.907,0,0,1,.561-2.607,4.466,4.466,0,0,1,1.563-1.823,3.856,3.856,0,0,1,2.171-.663,3.624,3.624,0,0,1,2.9,1.248,5.061,5.061,0,0,1,1.072,3.409v.622H28.695v.213a4.2,4.2,0,0,0,.979,2.844,3.114,3.114,0,0,0,2.463,1.136,3.617,3.617,0,0,0,1.573-.325,3.488,3.488,0,0,0,1.239-1.039l.7.529A4.05,4.05,0,0,1,32.09,20.186Zm-.2-9.463a2.775,2.775,0,0,0-2.111.918,4.243,4.243,0,0,0-1.044,2.468h6.021v-.121a3.684,3.684,0,0,0-.826-2.356A2.559,2.559,0,0,0,31.886,10.723ZM44.03,17.449a1.582,1.582,0,0,0-.663-1.327,5.116,5.116,0,0,0-2-.784,9.02,9.02,0,0,1-2.073-.649,2.762,2.762,0,0,1-1.095-.9,2.234,2.234,0,0,1-.357-1.28,2.388,2.388,0,0,1,.993-1.962,4.01,4.01,0,0,1,2.542-.775,4.127,4.127,0,0,1,2.7.83,2.665,2.665,0,0,1,1.016,2.166H43.975a1.8,1.8,0,0,0-.738-1.466,3.329,3.329,0,0,0-3.618-.1,1.5,1.5,0,0,0-.663,1.266,1.369,1.369,0,0,0,.552,1.164,5.839,5.839,0,0,0,2.013.756,9.462,9.462,0,0,1,2.189.733,2.836,2.836,0,0,1,1.081.937,2.577,2.577,0,0,1-.673,3.358,4.38,4.38,0,0,1-2.677.761,4.5,4.5,0,0,1-2.844-.849,2.613,2.613,0,0,1-1.09-2.148h1.113a1.93,1.93,0,0,0,.821,1.517,3.356,3.356,0,0,0,2,.543,3.155,3.155,0,0,0,1.874-.51A1.531,1.531,0,0,0,44.03,17.449Z" transform="translate(880 183)"/>
    <g id="SonarSource_Black" data-name="SonarSource Black" transform="translate(689.456 168.5)">
      <g id="Groupe_5736" data-name="Groupe 5736" transform="translate(141.695)">
        <path id="Tracé_9569" data-name="Tracé 9569" class="cls-2" d="M473.512,42H471.5a29.588,29.588,0,0,0-29.761-29.343v-2.01A31.6,31.6,0,0,1,473.512,42Z" transform="translate(-441.742 -7.233)"/>
        <path id="Tracé_9570" data-name="Tracé 9570" class="cls-2" d="M500.758,25.64A30.244,30.244,0,0,0,479.809,4.055l.462-1.609a31.944,31.944,0,0,1,22.117,22.806Z" transform="translate(-467.598 -1.661)"/>
        <path id="Tracé_9571" data-name="Tracé 9571" class="cls-2" d="M524.69,14.452A30.8,30.8,0,0,0,512.767,1.145l.7-1.145a32.153,32.153,0,0,1,12.446,13.893Z" transform="translate(-489.985)"/>
      </g>
      <g id="Groupe_5737" data-name="Groupe 5737" transform="translate(0 18.243)">
        <path id="Tracé_9572" data-name="Tracé 9572" class="cls-3" d="M.877,68.783a9.646,9.646,0,0,0,4.244,1.2c1.493,0,2.107-.517,2.107-1.329s-.484-1.2-2.333-1.816C1.62,65.736.357,63.953.389,62.071c0-2.948,2.53-5.187,6.45-5.187a10.6,10.6,0,0,1,4.473.91l-.873,3.4A7.774,7.774,0,0,0,7,60.288c-1.2,0-1.882.488-1.882,1.3,0,.743.619,1.132,2.563,1.813,3.015,1.037,4.281,2.563,4.31,4.9,0,2.951-2.333,5.121-6.872,5.121A11.244,11.244,0,0,1,0,72.317Z" transform="translate(0 -56.879)"/>
        <path id="Tracé_9573" data-name="Tracé 9573" class="cls-3" d="M56.4,64.993c0,5.8-4.117,8.459-8.365,8.459-4.633,0-8.2-3.047-8.2-8.168s3.371-8.4,8.463-8.4A7.706,7.706,0,0,1,56.4,64.993Zm-11.477.16c0,2.723,1.136,4.765,3.243,4.765,1.915,0,3.143-1.911,3.143-4.765,0-2.366-.906-4.765-3.143-4.765-2.366,0-3.243,2.431-3.243,4.764Z" transform="translate(-27.054 -56.882)"/>
        <path id="Tracé_9574" data-name="Tracé 9574" class="cls-3" d="M96.676,62.3c0-1.977-.064-3.662-.131-5.056h4.281l.225,2.173h.1a5.8,5.8,0,0,1,4.892-2.53c3.243,0,5.675,2.14,5.675,6.807v9.4h-4.927V64.31c0-2.042-.713-3.436-2.5-3.436A2.626,2.626,0,0,0,101.8,62.72a3.359,3.359,0,0,0-.2,1.234v9.14H96.676Z" transform="translate(-65.577 -56.88)"/>
        <path id="Tracé_9575" data-name="Tracé 9575" class="cls-3" d="M158.958,73.1l-.291-1.587h-.1a5.72,5.72,0,0,1-4.539,1.944,4.857,4.857,0,0,1-5.121-4.863c0-4.117,3.695-6.095,9.3-6.061V62.3c0-.841-.455-2.042-2.887-2.042a8.919,8.919,0,0,0-4.375,1.2l-.91-3.177a13.1,13.1,0,0,1,6.159-1.394c5.285,0,6.971,3.111,6.971,6.839v5.511A24.288,24.288,0,0,0,163.4,73.1Zm-.582-7.487c-2.591-.032-4.6.583-4.6,2.5a1.77,1.77,0,0,0,1.947,1.878,2.689,2.689,0,0,0,2.559-1.813,3.533,3.533,0,0,0,.1-.845Z" transform="translate(-101.145 -56.883)"/>
        <path id="Tracé_9576" data-name="Tracé 9576" class="cls-3" d="M201.2,62.453c0-2.333-.064-3.858-.131-5.219h4.248l.164,2.919h.128a4.657,4.657,0,0,1,4.281-3.276,5.021,5.021,0,0,1,1.037.064V61.58a7,7,0,0,0-1.329-.131,3.171,3.171,0,0,0-3.374,2.5,6.074,6.074,0,0,0-.1,1.1v8.037H201.2Z" transform="translate(-136.572 -56.872)"/>
        <path id="Tracé_9577" data-name="Tracé 9577" class="cls-3" d="M234.337,70.526a7.493,7.493,0,0,0,3.76,1.132c2.075,0,3.047-1.037,3.047-2.333,0-1.361-.808-2.107-2.915-2.883-2.821-1.008-4.149-2.563-4.149-4.444,0-2.526,2.042-4.6,5.413-4.6a7.814,7.814,0,0,1,3.858.972l-.714,2.076a6.1,6.1,0,0,0-3.211-.91c-1.685,0-2.624.975-2.624,2.14,0,1.3.939,1.882,2.981,2.662,2.723,1.037,4.117,2.4,4.117,4.732,0,2.755-2.137,4.7-5.867,4.7a8.912,8.912,0,0,1-4.408-1.07Z" transform="translate(-158.686 -57.228)"/>
        <path id="Tracé_9578" data-name="Tracé 9578" class="cls-3" d="M284.848,65.467c0,5.806-4.019,8.332-7.811,8.332-4.248,0-7.52-3.111-7.52-8.07,0-5.252,3.436-8.332,7.779-8.332C281.8,57.4,284.848,60.67,284.848,65.467Zm-12.449.164c0,3.436,1.98,6.028,4.768,6.028,2.723,0,4.765-2.559,4.765-6.094,0-2.657-1.329-6.03-4.7-6.03s-4.831,3.112-4.831,6.1Z" transform="translate(-183.066 -57.229)"/>
        <path id="Tracé_9579" data-name="Tracé 9579" class="cls-3" d="M337.428,69.921c0,1.62.032,3.047.131,4.277h-2.53l-.164-2.559H334.8a5.91,5.91,0,0,1-5.187,2.915c-2.464,0-5.416-1.361-5.416-6.872V58.51h2.855V67.2c0,2.981.906,4.99,3.5,4.99a4.128,4.128,0,0,0,3.76-2.591,4.234,4.234,0,0,0,.259-1.459V58.51h2.855Z" transform="translate(-220.209 -57.985)"/>
        <path id="Tracé_9580" data-name="Tracé 9580" class="cls-3" d="M375.889,62.646c0-1.845-.032-3.436-.128-4.892h2.493l.1,3.079h.131a4.707,4.707,0,0,1,4.342-3.436,3.228,3.228,0,0,1,.812.1v2.694a4.252,4.252,0,0,0-.972-.1c-2.013,0-3.436,1.521-3.825,3.662a7.974,7.974,0,0,0-.131,1.329v8.365h-2.821Z" transform="translate(-255.231 -57.229)"/>
        <path id="Tracé_9581" data-name="Tracé 9581" class="cls-3" d="M412.948,72.926a10.507,10.507,0,0,1-4.506.906c-4.732,0-7.815-3.208-7.815-8.008,0-4.83,3.309-8.328,8.43-8.328a9.548,9.548,0,0,1,3.957.808l-.652,2.208a6.6,6.6,0,0,0-3.3-.746c-3.6,0-5.543,2.657-5.543,5.934,0,3.629,2.333,5.867,5.445,5.867a8.085,8.085,0,0,0,3.5-.779Z" transform="translate(-272.121 -57.296)"/>
        <path id="Tracé_9582" data-name="Tracé 9582" class="cls-3" d="M443.99,66.117c.062,3.858,2.526,5.449,5.38,5.449a10.277,10.277,0,0,0,4.342-.812L454.2,72.8a12.691,12.691,0,0,1-5.219.972c-4.83,0-7.717-3.176-7.717-7.909s2.788-8.458,7.359-8.458c5.121,0,6.483,4.506,6.483,7.389a10.738,10.738,0,0,1-.1,1.329Zm8.361-2.042c.032-1.813-.743-4.633-3.953-4.633-2.887,0-4.149,2.657-4.379,4.633Z" transform="translate(-299.723 -57.231)"/>
      </g>
    </g>
  </g>
</svg>
